<svg xmlns="http://www.w3.org/2000/svg" viewBox="0 0 399 95">
	<defs>
		<style>.cls-1{fill:none;}.cls-2{fill:#ffffff;}.cls-3{fill:#d63129;}</style>
	</defs>
	<title>masttech-black+accent</title>
	<g id="Layer_2" data-name="Layer 2">
		<g id="Layer_1-2" data-name="Layer 1">
			<rect class="cls-1" width="380.05" height="95"/>
			<path class="cls-2" d="M76,76H63V42.86L48.24,67H46.77L32,42.86V76H19V19H32L47.51,44.32,63,19H76Z"/>
			<path class="cls-2" d="M124.3,35.29V76H112.07V72.17c-2.69,3.1-6.68,5-12.14,5-10.68,0-19.48-9.36-19.48-21.5s8.8-21.49,19.48-21.49c5.46,0,9.45,1.87,12.14,5V35.29ZM112.07,55.64c0-6.1-4.07-9.93-9.7-9.93s-9.7,3.83-9.7,9.93,4.08,9.94,9.7,9.94S112.07,61.75,112.07,55.64Z"/>
			<path class="cls-2" d="M164,63.79c0,9.36-8.19,13.35-17,13.35-8.2,0-14.43-3.09-17.62-9.69l10.65-6c1.07,3.1,3.36,4.81,7,4.81,2.95,0,4.42-.9,4.42-2.53,0-4.47-20.16-2.11-20.16-16.2,0-8.88,7.54-13.35,16.06-13.35,6.64,0,12.54,2.93,16,8.71l-10.49,5.62c-1.14-2.12-2.78-3.59-5.49-3.59-2.13,0-3.44.82-3.44,2.28C143.81,51.82,164,48.72,164,63.79Z"/>
			<path class="cls-2" d="M186.56,47V61.42c0,3.51,3,3.83,8.38,3.51V76c-15.95,1.63-20.59-3.18-20.59-14.58V47h-6.51V35.29h6.51V27.55l12.21-3.66v11.4h8.38V47Z"/>
			<path class="cls-2" d="M218.11,47V61.42c0,3.51,3,3.83,8.38,3.51V76c-16,1.63-20.59-3.18-20.59-14.58V47h-6.52V35.29h6.52V27.55l12.21-3.66v11.4h8.38V47Z"/>
			<path class="cls-2" d="M253,66.23a10.5,10.5,0,0,0,7.77-3.1l9.73,5.62c-4,5.54-10,8.39-17.67,8.39-13.85,0-22.44-9.36-22.44-21.5s8.75-21.49,21.55-21.49c11.83,0,20.58,9.2,20.58,21.49a24.14,24.14,0,0,1-.48,4.89H243.24C244.78,64.76,248.51,66.23,253,66.23Zm7.45-14.82c-1.3-4.72-4.94-6.43-8.59-6.43-4.62,0-7.7,2.28-8.83,6.43Z"/>
			<path class="cls-2" d="M277.5,55.64a21.55,21.55,0,0,1,40-11.07l-10.67,6.19a8.45,8.45,0,0,0-7.91-4.56c-5.29,0-9.2,3.82-9.2,9.44s3.91,9.45,9.2,9.45c3.59,0,6.6-1.71,7.91-4.56l10.67,6.11a20.79,20.79,0,0,1-18.41,10.5A21.1,21.1,0,0,1,277.5,55.64Z"/>
			<path class="cls-2" d="M361,51V76H348.83V52.79c0-5-3.18-7.41-7.09-7.41-4.48,0-7.57,2.61-7.57,8.39V76H322V19h12.22V39.11c2.2-3,6.27-5,11.64-5C354,34.15,361,40,361,51Z"/>
			<rect class="cls-3" x="380.05" y="0.12" width="18.95" height="94.76" transform="translate(779.05 95) rotate(180)"/>
		</g>
	</g>#222730
</svg>