<?xml version="1.0" encoding="utf-8"?>
<!-- Generator: Adobe Illustrator 24.1.2, SVG Export Plug-In . SVG Version: 6.00 Build 0)  -->
<svg version="1.1" id="Layer_1" xmlns="http://www.w3.org/2000/svg" xmlns:xlink="http://www.w3.org/1999/xlink" x="0px" y="0px"
	 viewBox="0 0 135.6 46.8" style="enable-background:new 0 0 135.6 46.8;" xml:space="preserve">
<style type="text/css">
	.st0{fill:none;stroke:#1D1D1B;stroke-width:7.605896e-02;stroke-linecap:round;stroke-linejoin:round;}
	.st1{fill:#003C75;}
	.st2{fill:#FFFFFF;}
</style>
<g>
	<path class="st0" d="M58.7,36.6"/>
</g>
<g>
	<path class="st1" d="M64,14.6h-2.1v4.5h-1.6V8.5h4.2c2.1,0,3.5,1.2,3.5,3c0,1.6-1.1,2.7-2.8,3l0.9,1.1l2,3.5h-1.9L64,14.6z
		 M62,13.2h2.7c1.3,0,1.8-0.5,1.8-1.6S66,10,64.7,10H62V13.2z"/>
	<path class="st1" d="M76.1,16h-5.4c0.1,1.5,0.7,2,2.1,2c1,0,1.5-0.3,1.8-1.1l1.4,0.5c-0.5,1.3-1.7,1.9-3.2,1.9
		c-2.2,0-3.6-1.5-3.6-3.8s1.5-3.8,3.6-3.8c2,0,3.4,1.4,3.4,3.6C76.1,15.6,76.1,15.7,76.1,16z M70.7,14.9h3.9
		C74.5,13.5,74,13,72.7,13C71.5,12.9,70.8,13.5,70.7,14.9z"/>
	<path class="st1" d="M84.3,11.9L81,20.2c-0.4,1.1-1,1.5-2.3,1.5h-1.5v-1.4h2.6l0.1-0.3l0,0l-3.2-8.2h1.7l1.6,4.6l0.5,1.7l0.5-1.7
		l1.6-4.6L84.3,11.9L84.3,11.9z"/>
	<path class="st1" d="M92.4,14.7v4.5h-1.5v-4.4c0-1.1-0.6-1.6-1.6-1.6c-1.2,0-2,0.9-2,2.6v3.4h-1.5v-7.3h1.5v1.8
		c0.3-1.2,1.1-1.9,2.5-1.9C91.5,11.7,92.4,12.8,92.4,14.7z"/>
	<path class="st1" d="M101.7,11.9v7.3h-1.5v-1.5c-0.5,1-1.4,1.6-2.6,1.6c-2.1,0-3.4-1.5-3.4-3.8s1.3-3.8,3.3-3.8
		c1.2,0,2.2,0.6,2.7,1.7v-1.5H101.7z M100.2,15.5c0-1.6-0.7-2.4-2.3-2.4s-2.3,0.8-2.3,2.4s0.7,2.4,2.3,2.4S100.2,17.1,100.2,15.5z"
		/>
	<path class="st1" d="M110.5,16h-5.4c0.1,1.5,0.7,2,2.1,2c1,0,1.5-0.3,1.8-1.1l1.4,0.5c-0.5,1.3-1.7,1.9-3.2,1.9
		c-2.2,0-3.6-1.5-3.6-3.8s1.5-3.8,3.6-3.8c2,0,3.4,1.4,3.4,3.6C110.5,15.6,110.5,15.7,110.5,16z M105.1,14.9h3.9
		c-0.1-1.4-0.6-1.9-1.9-1.9C105.9,12.9,105.2,13.5,105.1,14.9z"/>
	<path class="st1" d="M117,11.9v1.5c-0.2-0.1-0.4-0.2-1-0.2c-1.4,0-2.1,1.1-2.1,2.8v3.1h-1.5v-7.3h1.5v2.1c0.2-1.2,0.8-2.3,2.3-2.3
		C116.4,11.7,116.7,11.8,117,11.9z"/>
	<path class="st1" d="M117.7,17.1l1.5-0.4c0.2,1.1,0.7,1.4,1.8,1.4c0.9,0,1.4-0.3,1.4-0.9c0-0.5-0.2-0.8-1.1-0.9l-1.3-0.2
		c-1.2-0.2-2-0.8-2-2.1s1.1-2.2,2.8-2.2c1.7,0,2.7,0.7,3,2.2l-1.4,0.4c-0.1-1.1-0.6-1.3-1.5-1.3s-1.3,0.3-1.3,0.9
		c0,0.5,0.2,0.8,0.9,0.9l1.6,0.3c1.1,0.2,1.9,0.8,1.9,2c0,1.4-1.1,2.3-3,2.3C119.1,19.3,118,18.4,117.7,17.1z"/>
</g>
<g>
	<path class="st1" d="M66.8,33.4H62l-1,2.8h-1.8l4.1-10.6h2.2l4.1,10.6h-1.8L66.8,33.4z M66.2,31.9L65,28.6l-0.6-1.8l-0.6,1.8
		l-1.2,3.3H66.2z"/>
	<path class="st1" d="M70.9,25.5h1.5v10.6h-1.5V25.5z"/>
	<path class="st1" d="M81.5,28.9v7.3H80v-1.8c-0.3,1.2-1.1,1.9-2.5,1.9c-1.7,0-2.6-1-2.6-3v-4.5h1.5v4.4c0,1.1,0.6,1.6,1.6,1.6
		c1.2,0,2-0.9,2-2.6v-3.4h1.5V28.9z"/>
	<path class="st1" d="M95.7,31.7v4.4h-1.5v-4.3c0-1.1-0.6-1.7-1.6-1.7c-1.4,0-2,1-2,3v3h-1.5v-4.4c0-1.1-0.6-1.6-1.6-1.6
		c-1.2,0-2,0.9-2,2.6v3.4H84v-7.3h1.5v1.8c0.3-1.2,1.1-1.9,2.5-1.9s2.2,0.7,2.5,2c0.4-1.3,1.3-2,2.6-2
		C94.8,28.7,95.7,29.8,95.7,31.7z"/>
	<path class="st1" d="M97.7,26.3c0-0.7,0.4-1,1.1-1c0.7,0,1,0.3,1.1,1c0,0.7-0.4,1-1.1,1C98.1,27.4,97.7,27,97.7,26.3z M98,28.9h1.5
		v7.3H98V28.9z"/>
	<path class="st1" d="M108.6,31.7v4.5h-1.5v-4.4c0-1.1-0.6-1.6-1.6-1.6c-1.2,0-2,0.9-2,2.6v3.4H102v-7.3h1.5v1.8
		c0.3-1.2,1.1-1.9,2.5-1.9C107.7,28.7,108.6,29.7,108.6,31.7z"/>
	<path class="st1" d="M110.6,26.3c0-0.7,0.4-1,1.1-1s1,0.3,1.1,1c0,0.7-0.4,1-1.1,1C111,27.4,110.6,27,110.6,26.3z M110.9,28.9h1.5
		v7.3h-1.5L110.9,28.9L110.9,28.9z"/>
	<path class="st1" d="M121.4,28.9v7.3h-1.5v-1.8c-0.3,1.2-1.1,1.9-2.5,1.9c-1.7,0-2.6-1-2.6-3v-4.5h1.5v4.4c0,1.1,0.6,1.6,1.6,1.6
		c1.2,0,2-0.9,2-2.6v-3.4h1.5V28.9z"/>
	<path class="st1" d="M135.6,31.7v4.4h-1.5v-4.3c0-1.1-0.6-1.7-1.6-1.7c-1.4,0-2,1-2,3v3H129v-4.4c0-1.1-0.6-1.6-1.6-1.6
		c-1.2,0-2,0.9-2,2.6v3.4h-1.5v-7.3h1.5v1.8c0.3-1.2,1.1-1.9,2.5-1.9s2.2,0.7,2.5,2c0.4-1.3,1.3-2,2.6-2
		C134.7,28.7,135.6,29.8,135.6,31.7z"/>
</g>
<rect class="st1" width="46.8" height="46.8"/>
<g>
	<path class="st2" d="M33,18.3c0-5.2-3.7-7.6-8.2-7.6H13.7v3.6h3.7h3.1h4.3c2.6,0,4.3,1.5,4.3,4.1c0,2.8-1.8,4.1-4.3,4.1h-4.3h-3.1
		h-3.7v13.6h3.7V26h5.7l5,10.1h4.4l-5.2-10.4C30.9,24.9,33,22.4,33,18.3"/>
</g>
</svg>
