<svg width="109" height="126" viewBox="0 0 109 126" fill="none" xmlns="http://www.w3.org/2000/svg">
<path d="M54.3819 76.6836C46.6749 76.6836 40.4092 70.3789 40.4092 62.582C40.4092 54.8281 46.6749 48.5234 54.3819 48.5234C62.0889 48.5234 68.3546 54.8281 68.3546 62.582C68.3546 70.3789 62.0889 76.6836 54.3819 76.6836ZM106.933 88.875L105.034 87.7578L107.425 83.5664C108.456 81.7852 107.839 79.5469 106.108 78.5078C104.335 77.5117 102.108 78.0938 101.077 79.8789L98.6866 84.0664L90.6905 79.4219L98.5225 77.3047C100.46 76.8086 101.655 74.7344 101.12 72.7852C100.585 70.8359 98.5655 69.6758 96.628 70.1719L81.7061 74.1953L74.6592 70.1328C75.4835 67.7656 75.9796 65.2383 75.9796 62.582C75.9796 59.9688 75.4835 57.4375 74.6592 55.0742L81.7061 51.0117L96.628 55.0352C98.5655 55.5313 100.585 54.3711 101.12 52.4219C101.655 50.4297 100.46 48.3984 98.5225 47.9023L90.6905 45.7852L98.6866 41.1406L101.077 45.3281C102.108 47.0703 104.335 47.6914 106.108 46.6992C107.839 45.6602 108.456 43.3789 107.425 41.6367L105.034 37.4492L106.933 36.3281C108.663 35.3359 109.28 33.0547 108.249 31.3125C107.261 29.5273 104.995 28.9453 103.265 29.9414L101.366 31.0625L98.9366 26.832C97.9444 25.0898 95.6788 24.4688 93.9483 25.5039C92.1749 26.5 91.6006 28.7813 92.5889 30.5234L95.0186 34.7539L87.0264 39.3984L89.128 31.4766C89.6202 29.5273 88.4678 27.4961 86.5303 26.957C84.5499 26.418 82.5303 27.6211 82.0381 29.5703L78.0381 44.582L70.9522 48.6875C67.7374 44.832 63.2022 42.0937 58.0499 41.1836V33.0117L68.9717 21.9805C70.4131 20.5703 70.4131 18.207 68.9717 16.7539C67.5694 15.3438 65.2217 15.3438 63.7803 16.7539L58.0499 22.5586V13.2695H62.8702C64.8936 13.2695 66.5421 11.6094 66.5421 9.57812C66.5421 7.54688 64.8936 5.88672 62.8702 5.88672H58.0499V3.69141C58.0499 1.65625 56.4014 0 54.3819 0C52.3624 0 50.7139 1.65625 50.7139 3.69141V5.88672H45.8897C43.8741 5.88672 42.2257 7.54688 42.2257 9.57812C42.2257 11.6094 43.8741 13.2695 45.8897 13.2695H50.7139V22.5586L44.9835 16.7539C43.5421 15.3438 41.1944 15.3438 39.7921 16.7539C38.3507 18.207 38.3507 20.5703 39.7921 21.9805L50.7139 33.0117V41.1836C45.5616 42.0937 40.9874 44.832 37.7725 48.6875L30.7256 44.582L26.7256 29.5703C26.1905 27.6211 24.171 26.418 22.2335 26.957C20.296 27.4961 19.1006 29.5273 19.6397 31.4766L21.7413 39.3984L13.7452 34.7539L16.1749 30.5234C17.1671 28.7813 16.546 26.5 14.8155 25.5039C13.085 24.4688 10.8155 25.0898 9.82721 26.832L7.39752 31.0625L5.50299 29.9414C3.76862 28.9453 1.50299 29.5273 0.471743 31.3125C-0.516538 33.0547 0.100649 35.3359 1.83112 36.3281L3.72956 37.4492L1.33893 41.6367C0.30768 43.3789 0.924867 45.6602 2.65534 46.6992C4.38971 47.6914 6.65534 47.0703 7.68659 45.3281L10.0772 41.1406L18.0733 45.7852L10.2413 47.9023C8.2608 48.3984 7.10846 50.4297 7.64362 52.4219C8.13971 54.3711 10.1983 55.5313 12.1358 55.0352L27.0577 51.0117L34.1046 55.0742C33.2374 57.4375 32.7842 59.9688 32.7842 62.582C32.7842 65.2383 33.2374 67.7656 34.1046 70.1328L27.0577 74.1953L12.1358 70.1719C10.1983 69.6758 8.13971 70.8359 7.64362 72.7852C7.10846 74.7344 8.2608 76.8086 10.2413 77.3047L18.0733 79.4219L10.0772 84.0664L7.68659 79.8789C6.65534 78.0938 4.38971 77.5117 2.65534 78.5078C0.924867 79.5469 0.30768 81.7852 1.33893 83.5664L3.72956 87.7578L1.83112 88.875C0.100649 89.8711 -0.516538 92.1523 0.471743 93.8945C1.50299 95.6797 3.76862 96.2578 5.50299 95.2656L7.39752 94.1445L9.82721 98.375C10.8155 100.117 13.085 100.738 14.8155 99.7031C16.5889 98.707 17.1671 96.4258 16.1749 94.6836L13.7452 90.4531L21.7413 85.8086L19.6397 93.7305C19.1006 95.6797 20.296 97.7109 22.2335 98.25C24.171 98.7461 26.1905 97.5859 26.7256 95.6367L30.7256 80.582L37.7725 76.5156C40.9874 80.375 45.5616 83.1133 50.7139 84.0234V92.1953L39.7921 103.227C38.3507 104.637 38.3507 107 39.7921 108.41C41.1944 109.863 43.5421 109.863 44.9835 108.41L50.7139 102.645V111.938H45.8897C43.8741 111.938 42.2257 113.594 42.2257 115.625C42.2257 117.66 43.8741 119.32 45.8897 119.32H50.7139V121.516C50.7139 123.551 52.3624 125.207 54.3819 125.207C56.4014 125.207 58.0499 123.551 58.0499 121.516V119.32H62.8702C64.8936 119.32 66.5421 117.66 66.5421 115.625C66.5421 113.594 64.8936 111.938 62.8702 111.938H58.0499V102.645L63.7803 108.41C65.2217 109.863 67.5694 109.863 68.9717 108.41C70.4131 107 70.4131 104.637 68.9717 103.227L58.0499 92.1953V84.0234C63.2022 83.1133 67.7374 80.375 70.9522 76.5156L78.0381 80.582L82.0381 95.6367C82.5303 97.5859 84.5499 98.7461 86.5303 98.25C88.4678 97.7109 89.6202 95.6797 89.128 93.7305L87.0264 85.8086L95.0186 90.4531L92.5889 94.6836C91.6006 96.4258 92.1749 98.707 93.9483 99.7031C95.6788 100.738 97.9444 100.117 98.9366 98.375L101.366 94.1445L103.265 95.2656C104.995 96.2578 107.261 95.6797 108.249 93.8945C109.28 92.1523 108.663 89.8711 106.933 88.875Z" fill="#727A84"/>
<path d="M54.3819 54.2891C49.8077 54.2891 46.1397 58.0195 46.1397 62.582C46.1397 67.1836 49.8077 70.875 54.3819 70.875C58.9171 70.875 62.6241 67.1836 62.6241 62.582C62.6241 58.0195 58.9171 54.2891 54.3819 54.2891Z" fill="#727A84"/>
</svg>
