<svg width="125" height="121" viewBox="0 0 125 121" fill="none" xmlns="http://www.w3.org/2000/svg">
<path d="M120.813 114.539C120.734 115.711 119.727 116.633 118.551 116.574L41.6094 113.09L42.1094 105.527L118.836 112.223C120.004 112.328 120.891 113.363 120.813 114.539ZM25.5117 104.078L29.6602 104.437L29.1289 112.523L24.9688 112.336L25.5117 104.078ZM15.6367 116.055C13.4531 116.109 11.4375 115.137 10.1094 113.391L5.14454 106.875L10.918 101.066C12.4649 99.5156 14.5859 98.8203 16.75 99.1562C18.7305 99.4687 20.418 100.602 21.4531 102.293L20.7109 113.566C19.4649 115.105 17.6445 116.008 15.6367 116.055ZM37.957 105.164L37.4492 112.898L33.2891 112.711L33.8086 104.801L37.957 105.164ZM119.195 108.059L24.8203 99.8203C23.1328 97.2383 20.4844 95.5117 17.3906 95.0273C13.9024 94.4766 10.4688 95.6016 7.97267 98.1133L0.910165 105.215C0.171884 105.957 0.0976658 107.129 0.730478 107.961L6.80079 115.934C8.89454 118.68 12.043 120.238 15.4688 120.238C15.5586 120.238 15.6484 120.238 15.7344 120.234C18.8672 120.164 21.7188 118.801 23.7266 116.465L118.363 120.75C118.457 120.754 118.551 120.758 118.645 120.758C121.941 120.758 124.75 118.145 124.969 114.812C125.191 111.387 122.602 108.355 119.195 108.059Z" fill="#37A68D"/>
<path d="M121.863 35.2734C120.438 34.3867 118.883 33.6719 117.234 33.1445L115.973 37.1289C117.293 37.5508 118.539 38.1211 119.672 38.8281L121.863 35.2734Z" fill="#37A68D"/>
<path d="M88.2695 24.5547C87.5469 30.3906 87.207 34.3477 88.9688 36.1172C89.918 37.0664 91.4922 37.4062 93.6484 37.4062C95.5078 37.4062 97.793 37.1562 100.484 36.8203C104.125 36.3672 108.25 35.8555 112.195 36.3281L112.688 32.1758C108.238 31.6406 103.848 32.1875 99.9688 32.6719C98.1367 32.8984 93.457 33.4805 91.9727 33.1016C91.5938 31.6094 92.1758 26.9063 92.4023 25.0664C93.2891 17.8555 94.5078 7.97656 87.7188 0.265625L84.6016 3.03516C90.1445 9.33203 89.1484 17.418 88.2695 24.5547Z" fill="#37A68D"/>
<path d="M11.3984 90.9922C6.66406 82.3906 4.16406 72.6172 4.16406 62.7266C4.16406 47.0898 10.2305 32.3867 21.2422 21.332C32.2539 10.2734 46.8945 4.18359 62.4688 4.18359C70.5625 4.18359 75.7617 5.61719 78.3594 8.57422C81.418 12.0469 80.7305 17.6211 80 23.5273C79.1719 30.2695 78.3125 37.2422 83.0781 42.0312C87.8516 46.8203 94.793 45.957 101.508 45.1211C107.387 44.3906 112.938 43.6992 116.398 46.7695C119.34 49.3789 120.77 54.6016 120.77 62.7266C120.77 76.8281 115.707 90.4492 106.516 101.086L109.66 103.824C119.508 92.4297 124.934 77.8359 124.934 62.7266C124.934 53.332 123.043 47.0859 119.156 43.6367C114.289 39.3164 107.531 40.1563 100.996 40.9727C95.0117 41.7148 89.3555 42.418 86.0273 39.0703C82.6953 35.7266 83.3945 30.0508 84.1328 24.0391C84.9453 17.4766 85.7813 10.6914 81.4805 5.80469C78.043 1.89844 71.8242 0 62.4688 0C45.7812 0 30.0977 6.52734 18.2969 18.375C6.5 30.2227 0 45.9727 0 62.7266C0 73.3242 2.67969 83.793 7.75 93.0117L11.3984 90.9922Z" fill="#37A68D"/>
<path d="M62.4688 29.2734C57.875 29.2734 54.1406 25.5234 54.1406 20.9102C54.1406 16.2969 57.875 12.5469 62.4688 12.5469C67.0586 12.5469 70.7969 16.2969 70.7969 20.9102C70.7969 25.5234 67.0586 29.2734 62.4688 29.2734ZM62.4688 8.36328C55.5781 8.36328 49.9727 13.9922 49.9727 20.9102C49.9727 27.8281 55.5781 33.457 62.4688 33.457C69.3555 33.457 74.9609 27.8281 74.9609 20.9102C74.9609 13.9922 69.3555 8.36328 62.4688 8.36328Z" fill="#37A68D"/>
<path d="M62.4688 71.0938C57.875 71.0938 54.1406 67.3398 54.1406 62.7266C54.1406 58.1172 57.875 54.3633 62.4688 54.3633C67.0586 54.3633 70.7969 58.1172 70.7969 62.7266C70.7969 67.3398 67.0586 71.0938 62.4688 71.0938ZM62.4688 50.1836C55.5781 50.1836 49.9727 55.8086 49.9727 62.7266C49.9727 69.6445 55.5781 75.2734 62.4688 75.2734C69.3555 75.2734 74.9609 69.6445 74.9609 62.7266C74.9609 55.8086 69.3555 50.1836 62.4688 50.1836Z" fill="#37A68D"/>
<path d="M38.9102 39.0703C37.3359 40.6523 35.2461 41.5234 33.0195 41.5234C30.7969 41.5234 28.7031 40.6523 27.1328 39.0703C25.5586 37.4922 24.6914 35.3906 24.6914 33.1602C24.6914 30.9258 25.5586 28.8242 27.1328 27.2461C28.7031 25.6641 30.7969 24.793 33.0195 24.793C35.2461 24.793 37.3359 25.6641 38.9102 27.2461C40.4844 28.8242 41.3516 30.9258 41.3516 33.1602C41.3516 35.3906 40.4844 37.4922 38.9102 39.0703ZM41.8555 24.2891C39.4961 21.918 36.3594 20.6133 33.0195 20.6133C29.6836 20.6133 26.5469 21.918 24.1875 24.2891C21.8281 26.6562 20.5273 29.8086 20.5273 33.1602C20.5273 36.5078 21.8281 39.6602 24.1875 42.0312C26.5469 44.3984 29.6836 45.7031 33.0195 45.7031C36.3594 45.7031 39.4961 44.3984 41.8555 42.0312C44.2148 39.6602 45.5156 36.5078 45.5156 33.1602C45.5156 29.8086 44.2148 26.6562 41.8555 24.2891Z" fill="#37A68D"/>
<path d="M20.8242 71.0938C16.2305 71.0938 12.4961 67.3398 12.4961 62.7266C12.4961 58.1172 16.2305 54.3633 20.8242 54.3633C25.4141 54.3633 29.1523 58.1172 29.1523 62.7266C29.1523 67.3398 25.4141 71.0938 20.8242 71.0938ZM33.3164 62.7266C33.3164 55.8086 27.7109 50.1836 20.8242 50.1836C13.9336 50.1836 8.33203 55.8086 8.33203 62.7266C8.33203 69.6445 13.9336 75.2734 20.8242 75.2734C27.7109 75.2734 33.3164 69.6445 33.3164 62.7266Z" fill="#37A68D"/>
<path d="M43.3672 99.332C46.7227 94.3633 46.0859 87.6758 41.8555 83.4258C39.4961 81.0586 36.3594 79.7539 33.0195 79.7539C29.6836 79.7539 26.5469 81.0586 24.1875 83.4258C21.9219 85.7031 20.625 88.7266 20.5312 91.9414L24.6953 92.0586C24.7539 89.918 25.6211 87.9023 27.1328 86.3828C28.7031 84.8047 30.7969 83.9336 33.0195 83.9336C35.2461 83.9336 37.3359 84.8047 38.9102 86.3828C41.7305 89.2187 42.1562 93.6758 39.9219 96.9844L43.3672 99.332Z" fill="#37A68D"/>
<path d="M52.4727 97.0195L55.8047 99.5312C57.3945 97.4023 59.8242 96.1836 62.4688 96.1836C65.7812 96.1836 68.7773 98.1523 70.1055 101.203L73.9219 99.5273C71.9297 94.957 67.4336 92 62.4688 92C58.5 92 54.8594 93.8281 52.4727 97.0195Z" fill="#37A68D"/>
<path d="M96.6719 99.1641L99.0586 102.594C99.6602 102.172 100.227 101.691 100.75 101.168C103.109 98.8008 104.406 95.6484 104.406 92.2969C104.406 88.9492 103.109 85.7969 100.75 83.4258C98.3867 81.0586 95.2539 79.7539 91.9141 79.7539C88.5781 79.7539 85.4414 81.0586 83.0781 83.4258C80.7188 85.7969 79.4219 88.9492 79.4219 92.2969C79.4219 95.6484 80.7188 98.8008 83.0781 101.168C83.3906 101.48 83.7188 101.777 84.0625 102.055L86.6836 98.8086C86.4531 98.6211 86.2344 98.4219 86.0234 98.2109C84.4531 96.6328 83.5859 94.5312 83.5859 92.2969C83.5859 90.0625 84.4531 87.9648 86.0273 86.3867C87.5977 84.8047 89.6914 83.9336 91.9141 83.9336C94.1406 83.9336 96.2305 84.8047 97.8047 86.3867C99.375 87.9648 100.242 90.0625 100.242 92.2969C100.242 94.5312 99.375 96.6328 97.8047 98.2109C97.457 98.5625 97.0742 98.8828 96.6719 99.1641Z" fill="#37A68D"/>
<path d="M104.113 71.0938C99.5195 71.0938 95.7812 67.3398 95.7812 62.7266C95.7812 58.1172 99.5195 54.3633 104.113 54.3633C108.703 54.3633 112.441 58.1172 112.441 62.7266C112.441 67.3398 108.703 71.0938 104.113 71.0938ZM116.605 62.7266C116.605 55.8086 111 50.1836 104.113 50.1836C97.2227 50.1836 91.6172 55.8086 91.6172 62.7266C91.6172 69.6445 97.2227 75.2734 104.113 75.2734C111 75.2734 116.605 69.6445 116.605 62.7266Z" fill="#37A68D"/>
</svg>
