<svg width="125" height="108" viewBox="0 0 125 108" fill="none" xmlns="http://www.w3.org/2000/svg">
<path d="M64.9427 106.191C64.7162 106.191 64.4935 106.188 64.2747 106.176C47.8294 105.559 41.7904 94.1914 39.9583 89.3359L39.8021 88.9258L39.9857 88.5273C40.2904 87.8789 40.6068 87.2383 40.9271 86.6289C41.724 85.1563 42.4935 83.8672 43.2943 82.6836C44.1185 81.4687 44.9935 80.3047 45.9154 79.1992C44.9505 80.2734 44.0326 81.4062 43.1615 82.5898C42.4388 83.5781 41.7357 84.6445 41.0091 85.8477L38.9935 89.1836L39.0951 85.2812C39.2005 81.2695 41.8451 72.4453 48.7044 64.5664C54.3333 58.1016 64.5013 50.3945 80.9701 50.3945C92.599 50.3945 105.786 54.2539 120.173 61.8633L122.31 62.9922L120.017 63.7617C109.079 67.4297 102.677 73.3125 93.6576 87.9727C88.8333 95.8203 81.2943 101.937 72.9779 104.762C70.2708 105.684 67.4193 106.191 64.9427 106.191Z" fill="#005D22"/>
<path d="M80.9701 49.3594C64.1107 49.3594 53.6966 57.2578 47.9271 63.8828C41.3373 71.4531 38.1927 80.2695 38.0638 85.2539L37.8568 93.0586L39.349 90.5938C40.3958 93.0859 42.5052 97.0234 46.3177 100.422C51.0677 104.66 57.0951 106.945 64.2357 107.215C64.4662 107.223 64.7044 107.227 64.9427 107.227C67.5287 107.227 70.5013 106.699 73.306 105.746C81.849 102.844 89.5833 96.5664 94.5365 88.5156C103.513 73.9219 109.544 68.3672 120.345 64.7461L124.927 63.207L120.654 60.9453C106.118 53.2578 92.7669 49.3594 80.9701 49.3594ZM80.9701 51.4336C91.4271 51.4336 104.216 54.5938 119.689 62.7812C108.357 66.582 101.884 72.625 92.7826 87.4258C88.2669 94.7695 81.0169 100.941 72.6458 103.781C70.2591 104.594 67.4896 105.156 64.9427 105.156C64.7318 105.156 64.5208 105.152 64.3099 105.145C49.1224 104.57 42.9662 94.3867 40.9193 88.9688C41.2122 88.3477 41.5169 87.7266 41.8412 87.1094C42.5404 85.8125 43.3021 84.5195 44.1458 83.2656C45.8451 80.7656 47.8294 78.3945 50.0677 76.2773C54.5247 72.0039 59.9388 68.7695 65.3138 66.5117C68.0052 65.3828 70.6966 64.4922 73.2826 63.7773C75.8724 63.0703 78.3529 62.5039 80.6693 62.1055C81.8216 61.8789 82.9388 61.7422 83.9974 61.5703C85.0599 61.418 86.0716 61.3086 87.0208 61.1875C87.9701 61.0938 88.8607 61.0078 89.6849 60.9297C90.5091 60.8516 91.2669 60.8164 91.9505 60.7617C93.3216 60.6562 94.4037 60.6367 95.138 60.5977C95.8724 60.5703 96.2669 60.5508 96.2669 60.5508C96.2669 60.5508 95.8724 60.5547 95.138 60.5586C94.3997 60.5664 93.3177 60.5469 91.9466 60.6016C91.2591 60.6289 90.4974 60.6367 89.6693 60.6836C88.8412 60.7344 87.9427 60.7852 86.9857 60.8438C86.0326 60.9258 85.013 61 83.9427 61.1133C82.8763 61.2422 81.7435 61.3398 80.5794 61.5273C78.2318 61.8359 75.7123 62.3164 73.0638 62.9297C70.4232 63.5586 67.6615 64.3555 64.8763 65.4062C62.0912 66.4531 59.2826 67.75 56.5638 69.3242C53.8412 70.8984 51.2083 72.75 48.806 74.8867C46.388 77.0039 44.2123 79.4102 42.3294 81.9766C41.5365 83.0586 40.8099 84.1758 40.1263 85.3086C40.3451 76.9844 51.2435 51.4336 80.9701 51.4336Z" fill="white"/>
<path d="M87.5833 83.3359C87.5833 83.3359 87.3138 83.9883 86.724 85.0742C86.4232 85.6133 86.0599 86.2695 85.5872 86.9883C85.1302 87.7188 84.5755 88.5195 83.9388 89.3711C83.2943 90.2148 82.5677 91.1172 81.7357 92.0156C80.9193 92.9258 79.9818 93.8203 78.974 94.7109C78.4544 95.1328 77.9466 95.5898 77.3802 95.9922C77.099 96.1992 76.8177 96.4062 76.5365 96.6172C76.2435 96.8086 75.9466 97.0039 75.6497 97.1953L75.2044 97.4883L74.7435 97.7578C74.431 97.9375 74.1185 98.1133 73.806 98.293C73.4857 98.457 73.1576 98.6133 72.8333 98.7734C72.5052 98.9297 72.181 99.0938 71.8412 99.2227L70.8294 99.625C70.4896 99.7617 70.138 99.8516 69.7943 99.9688C69.1107 100.211 68.3958 100.352 67.6966 100.512C67.349 100.602 66.9935 100.645 66.6419 100.695C66.2904 100.742 65.9388 100.789 65.5872 100.836C64.8841 100.867 64.1927 100.926 63.5091 100.914C63.1693 100.898 62.8333 100.883 62.4974 100.867C62.1615 100.855 61.8294 100.844 61.5091 100.785C61.1849 100.738 60.8646 100.691 60.5482 100.645C60.2318 100.602 59.9193 100.563 59.6185 100.477C59.0169 100.32 58.4271 100.199 57.8724 100.027C57.3255 99.8359 56.7982 99.6484 56.2904 99.4688C55.7904 99.2773 55.3294 99.043 54.888 98.8398C54.6693 98.7383 54.4544 98.6367 54.2474 98.5352C54.0365 98.4414 53.849 98.3164 53.6615 98.2109C53.2865 97.9922 52.9349 97.793 52.6185 97.5977C52.4583 97.5039 52.306 97.4102 52.1615 97.3242C52.0208 97.2266 51.888 97.1328 51.763 97.0391C51.2552 96.6875 50.8724 96.3906 50.6068 96.1992C50.3451 96 50.2044 95.8945 50.2044 95.8945C50.2044 95.8945 50.3646 95.9648 50.6693 96.0977C50.9662 96.2305 51.4115 96.4219 51.9583 96.6797C52.099 96.7422 52.2435 96.8086 52.3958 96.8789C52.5521 96.9375 52.7162 97 52.888 97.0625C53.2318 97.1875 53.5951 97.3359 53.9896 97.4883C54.1849 97.5586 54.3802 97.6523 54.5951 97.7148C54.8099 97.7773 55.0287 97.8438 55.2513 97.9102C55.7044 98.0352 56.1615 98.2109 56.6615 98.3281C57.1576 98.4414 57.6732 98.5586 58.2083 98.6797C58.7435 98.7852 59.306 98.8477 59.8763 98.9375C60.1615 98.9883 60.4505 99.0039 60.7474 99.0195C61.0404 99.0391 61.3412 99.0586 61.6419 99.0781C61.9388 99.1094 62.2474 99.0937 62.5521 99.0898C62.8607 99.0859 63.1693 99.082 63.4818 99.0781C63.7904 99.082 64.1029 99.0195 64.4193 99C64.7318 98.9727 65.0482 98.9414 65.3685 98.9102C65.6849 98.8516 66.0013 98.7969 66.3177 98.7383C66.638 98.6836 66.9622 98.6406 67.2747 98.5469C67.9076 98.3867 68.5482 98.2344 69.1732 98.0117C69.4857 97.9023 69.8099 97.8164 70.1146 97.6914L71.0404 97.3125C71.3568 97.1992 71.6537 97.0508 71.9583 96.9062C72.2552 96.7617 72.5599 96.6211 72.8568 96.4727C73.4349 96.1367 74.0443 95.8594 74.599 95.4922C75.7435 94.8242 76.8021 94.043 77.8255 93.2891C78.8255 92.4961 79.7826 91.7148 80.6458 90.9102C81.5208 90.125 82.3138 89.332 83.0365 88.5938C83.7513 87.8438 84.4076 87.1523 84.9622 86.5156C85.5169 85.8789 85.9974 85.3164 86.3841 84.8438C86.7669 84.3672 87.0755 83.9961 87.2747 83.7344C87.474 83.4766 87.5833 83.3359 87.5833 83.3359Z" fill="white"/>
<path d="M32.056 76.8398L31.5599 100.711L30.4662 100.625C23.4154 100.059 16.7435 97.0391 11.6732 92.1289C4.03257 84.7266 0.266946 71.2695 1.15757 63.043C2.95835 46.3867 16.1849 19.2266 30.6341 2.50391L31.4232 1.58984L32.2005 2.51172C42.7123 14.9688 60.5834 46.8906 62.7826 63.7773C64.1732 74.4609 60.724 84.6094 53.0638 92.3555L52.9037 92.5195C47.8021 97.6211 40.9427 100.535 33.5912 100.715L32.556 100.742L32.056 76.8398Z" fill="#005D22"/>
<path d="M31.431 0L29.8568 1.82422C15.2865 18.6836 1.95444 46.0977 0.134132 62.9336C-0.3229 67.1484 0.399758 72.6055 2.12241 77.9023C3.50913 82.1719 6.16929 88.2383 10.9544 92.875C16.1966 97.9531 23.0951 101.074 30.3841 101.66L31.5443 101.75V101.805L32.0482 101.793L32.5677 101.832V101.777L33.6146 101.754C41.2279 101.566 48.3334 98.5469 53.6302 93.2539C53.6732 93.2148 53.7162 93.1719 53.7591 93.1289L53.7943 93.0898C57.7396 89.0977 60.6107 84.4766 62.3255 79.3594C64.0091 74.3281 64.5052 69.0391 63.806 63.6445C62.4505 53.2422 55.5873 38.8359 51.6185 31.1758C45.6068 19.5742 38.4701 8.33594 32.9896 1.84375L31.431 0ZM31.4154 3.18359C42.0873 15.832 59.6185 47.4883 61.7591 63.9141C63.0755 74.0195 59.8763 83.9922 52.3334 91.6289C52.2826 91.6797 52.2318 91.7305 52.1849 91.7773C47.013 96.9492 40.3294 99.5156 33.5638 99.6797L32.056 27.3477L30.5482 99.5938C23.9232 99.0586 17.4232 96.2656 12.388 91.3828C4.65757 83.8906 1.37632 70.6172 2.18491 63.1562C3.97788 46.5625 17.3724 19.4336 31.4154 3.18359Z" fill="white"/>
<path d="M39.8607 22.5195C39.8607 22.5195 39.9818 22.6641 40.1927 22.9453C40.4076 23.2266 40.7279 23.6367 41.1068 24.1758C41.4974 24.7109 41.9544 25.3633 42.4662 26.1289C42.9779 26.8906 43.5521 27.7539 44.1497 28.7148C44.7396 29.6797 45.3841 30.7188 46.0208 31.8477C46.3412 32.4141 46.6693 32.9922 47.0052 33.582C47.3255 34.1836 47.6497 34.7969 47.9818 35.4219C48.3177 36.0469 48.6497 36.6836 48.9662 37.3398C49.2826 37.9961 49.6068 38.6562 49.931 39.3242C50.5716 40.668 51.1693 42.0586 51.7787 43.4375C52.3333 44.8477 52.9232 46.2383 53.4232 47.6406C53.6732 48.3438 53.9154 49.043 54.1537 49.7344C54.2708 50.0781 54.388 50.4219 54.5052 50.7617C54.6224 51.1016 54.7162 51.4492 54.8177 51.7891C55.0169 52.4688 55.2123 53.1406 55.4037 53.7969C55.4974 54.125 55.5912 54.4492 55.6849 54.7695C55.7669 55.0938 55.8412 55.418 55.9154 55.7344C56.2005 57.0039 56.5052 58.1953 56.7005 59.3164C56.888 60.4414 57.0404 61.4688 57.1771 62.3789C57.2552 62.8359 57.2904 63.2656 57.3177 63.6641C57.3451 64.0625 57.3724 64.4297 57.3997 64.7578C57.4505 65.418 57.474 65.9375 57.4974 66.2891C57.513 66.6406 57.5247 66.832 57.5247 66.832C57.5247 66.832 57.474 66.6484 57.3802 66.3047C57.2904 65.9648 57.1497 65.4648 56.9935 64.8242C56.9154 64.5078 56.8255 64.1562 56.7279 63.7734C56.6302 63.3906 56.5482 62.9727 56.4037 62.5391C56.138 61.6641 55.8451 60.6797 55.5404 59.6055C55.3997 59.0664 55.1888 58.5156 55.0052 57.9414C54.8177 57.3711 54.6224 56.7812 54.4232 56.1719C54.3255 55.8672 54.224 55.5586 54.1224 55.25C54.0091 54.9414 53.8958 54.6289 53.7787 54.3125C53.5521 53.6797 53.3216 53.0352 53.0833 52.3789C52.6341 51.0586 52.056 49.7344 51.5521 48.3594C51.306 47.6719 50.9935 47 50.724 46.3086C50.4427 45.6211 50.1615 44.9336 49.8802 44.2461C49.2865 42.8789 48.6966 41.5078 48.1185 40.1641C47.5052 38.8281 46.9466 37.4961 46.3451 36.2305C46.056 35.5937 45.7708 34.9687 45.4896 34.3555C45.2044 33.7461 44.9232 33.1484 44.6497 32.5703C44.1146 31.3984 43.5794 30.3086 43.1068 29.293C41.1576 25.2305 39.8607 22.5195 39.8607 22.5195Z" fill="white"/>
</svg>
