<svg width="125" height="82" viewBox="0 0 125 82" fill="none" xmlns="http://www.w3.org/2000/svg">
<path d="M124.77 75.8869C83.1797 54.9338 41.5898 96.8362 0 75.8869C0 52.6057 0 29.3284 0 6.04711C41.5898 27.0002 83.1797 -14.9021 124.77 6.04711C124.77 29.3284 124.77 52.6057 124.77 75.8869Z" fill="#EE2722"/>
<path d="M124.77 30.6916C83.1797 9.73851 41.5898 51.6409 0 30.6916C0 22.4768 0 14.2619 0 6.04711C41.5898 27.0002 83.1797 -14.9021 124.77 6.04711C124.77 14.2619 124.77 22.4768 124.77 30.6916Z" fill="#100F0D"/>
<path d="M124.77 51.2425C83.1797 30.2932 41.5898 72.1917 0 51.2425C0 59.4573 0 67.6682 0 75.887C41.5898 96.8362 83.1797 54.9339 124.77 75.887C124.77 67.6682 124.77 59.4573 124.77 51.2425Z" fill="#FAB31B"/>
</svg>
