<svg width="512" height="512" viewBox="0 0 512 512" fill="none" xmlns="http://www.w3.org/2000/svg">
<g clip-path="url(#clip0)">
<path d="M428.328 319.285C449.723 286.793 462.195 247.93 462.195 206.199C462.195 92.5 369.691 0 255.992 0C142.293 0 49.793 92.5 49.793 206.199C49.793 247.93 62.2656 286.793 83.6562 319.285L3 436.914L95.293 419.707L112.504 512L188.566 401.066C209.707 408.402 232.391 412.398 255.992 412.398C279.598 412.398 302.281 408.402 323.418 401.066L399.484 512L416.691 419.707L508.984 436.914L428.328 319.285ZM128.812 434.852L119.426 384.508L69.0859 393.898L103.055 344.355C119.324 362.348 138.719 377.457 160.367 388.84L128.812 434.852ZM79.9688 206.199C79.9688 109.141 158.934 30.1758 255.992 30.1758C353.055 30.1758 432.02 109.141 432.02 206.199C432.02 303.262 353.055 382.227 255.992 382.227C158.934 382.227 79.9688 303.262 79.9688 206.199V206.199ZM392.559 384.508L383.172 434.852L351.621 388.84C373.27 377.457 392.664 362.348 408.934 344.355L442.902 393.895L392.559 384.508Z" fill="#E8B739"/>
<path d="M219.234 251.484L170.172 202.426L148.836 223.762L219.234 294.16L363.152 150.246L341.816 128.91L219.234 251.484Z" fill="#E8B739"/>
</g>
<defs>
<clipPath id="clip0">
<rect width="512" height="512" fill="white"/>
</clipPath>
</defs>
</svg>
