<svg width="103" height="143" viewBox="0 0 103 143" fill="none" xmlns="http://www.w3.org/2000/svg">
<path d="M22.4844 60.9258V28.7031C22.4844 23.5938 22.4844 10.4609 47.6211 10.4609H53.6758C78.3477 10.4609 80.2109 23.5938 80.2109 28.7031V60.9258H89.6289V23.8672C89.6289 17.1758 87.1602 0 54.4336 0H46.4102C13.0625 0 13.0625 17.1758 13.0625 23.8672V60.9258H22.4844Z" fill="#383536"/>
<path d="M0.0429688 57.1445C0.0234377 57.3906 0 57.625 0 57.8711V130.426C0 137.176 5.79688 142.641 12.9414 142.641H89.75C96.9023 142.641 102.691 137.176 102.691 130.426V57.8711C102.691 57.625 102.668 57.3906 102.656 57.1445H0.0429688Z" fill="#F8A62B"/>
<path d="M85.8711 139.52H17.0391C12.6719 139.52 8.87891 137.246 6.90234 133.883C11.1797 134.852 15.707 135.25 20.2188 135.25C28.1172 135.25 35.9922 134.02 42.4805 132.379C53.8086 129.523 65.0547 124.043 73.8086 116.215C84.0781 107.023 88.1406 94.2969 92.5625 81.6367C94.668 75.5898 96.5234 69.3164 96.9883 62.8984H97.4336C97.4453 63.1172 97.4648 63.332 97.4648 63.5508V128.57C97.4648 134.621 92.2773 139.52 85.8711 139.52Z" fill="#FBCA5D"/>
<path d="M62.375 90.0703C62.375 83.9375 57.4336 78.9648 51.3477 78.9648C45.2578 78.9648 40.3203 83.9375 40.3203 90.0703C40.3203 94.8438 43.3086 98.9063 47.4961 100.48V116.949C47.4961 119.086 49.2266 120.824 51.3477 120.824C53.4727 120.824 55.1914 119.086 55.1914 116.949V100.48C59.3828 98.9063 62.375 94.8438 62.375 90.0703Z" fill="#383536"/>
<path d="M86.5703 54.6602L86.4844 54.5664C86.4844 54.5664 86.3867 51.6289 86.2422 47.2188C86.0937 42.8125 85.9766 36.9336 85.832 31.0547C85.7891 29.5859 85.7461 28.1172 85.7031 26.668C85.6836 25.9492 85.6523 25.2305 85.6406 24.5195C85.6328 24.1641 85.6289 23.8125 85.6211 23.4609C85.6211 23.1055 85.6094 22.7695 85.5859 22.457C85.5781 21.1641 85.3125 19.9375 85.0508 18.7773C84.8828 18.207 84.7344 17.6445 84.5195 17.1211C84.3398 16.582 84.1016 16.0898 83.8906 15.6016C83.4258 14.6523 82.9609 13.7891 82.4805 13.0586C82.0195 12.3164 81.5625 11.7031 81.1836 11.1914C80.4062 10.1875 79.9062 9.65625 79.9062 9.65625V9.51562L80.0156 9.50391C80.0156 9.50391 80.668 9.87891 81.668 10.7305C82.1562 11.1602 82.7383 11.7031 83.3477 12.3984C83.9609 13.0781 84.5859 13.9102 85.1953 14.8828C85.7891 15.8672 86.3477 16.9883 86.7773 18.2539C86.8945 18.5625 86.9688 18.9023 87.0625 19.2266C87.1523 19.5586 87.2422 19.8945 87.2891 20.2461C87.3477 20.5938 87.4023 20.9453 87.457 21.3008C87.4766 21.6641 87.5 22.0273 87.5195 22.3945C87.5391 22.7617 87.5391 23.1172 87.5273 23.4609C87.5195 23.8125 87.5117 24.1641 87.5078 24.5195C87.5 25.2305 87.4687 25.9492 87.4453 26.668C87.4023 28.1172 87.3633 29.5859 87.3203 31.0547C87.1719 36.9336 87.0547 42.8125 86.9062 47.2188C86.7617 51.6289 86.6719 54.5664 86.6719 54.5664L86.5703 54.6602Z" fill="#656263"/>
<path d="M19.9648 54.4961L19.8789 54.4141C19.8789 54.4141 19.7617 52.5977 19.6172 49.8789C19.4492 47.1602 19.3164 43.5391 19.1523 39.9141C19.1055 39.0078 19.0547 38.1016 19.0117 37.207C18.9531 36.3164 18.9102 35.4414 18.8984 34.5898C18.8984 33.7422 18.9062 32.9219 18.9531 32.1406C18.9844 31.3594 19.0352 30.6211 19.0977 29.9492C19.3164 27.2227 19.7227 25.4141 19.7227 25.4141L19.8398 25.3359L19.9102 25.4062C19.9102 25.4062 20.3359 27.2188 20.5859 29.9375C20.6523 30.6172 20.7109 31.3555 20.7539 32.1367C20.8086 32.9102 20.8281 33.7266 20.832 34.5781C20.832 35.4258 20.7969 36.3086 20.7539 37.2031C20.7148 38.0898 20.6797 39 20.6367 39.9062C20.5117 43.5312 20.4102 47.1602 20.2812 49.8789C20.1641 52.5977 20.0664 54.4102 20.0664 54.4102L19.9648 54.4961Z" fill="#656263"/>
<path d="M47.3359 122.492C45.0508 122.492 43.2109 120.625 43.2109 118.32V100.605C38.7148 98.9141 35.5156 94.5508 35.5156 89.418C35.5156 82.8164 40.8047 77.4688 47.3359 77.4688C47.7422 77.4688 48.1523 77.4883 48.5508 77.5312C42.5977 78.1523 37.9531 83.2383 37.9531 89.418C37.9531 94.5508 41.1523 98.9141 45.6484 100.605V118.32C45.6484 120.195 46.8711 121.781 48.5508 122.305C48.1641 122.426 47.7578 122.492 47.3359 122.492Z" fill="#FBCA5D"/>
</svg>
