<svg width="14" height="14" viewBox="0 0 14 14" fill="none" xmlns="http://www.w3.org/2000/svg">
<g clip-path="url(#clip0)">
<path d="M12.2135 1.01987C10.8536 -0.339958 8.64126 -0.339958 7.28143 1.01987L2.08855 6.21273C1.92829 6.37299 1.92829 6.63262 2.08855 6.79288C2.24881 6.95314 2.50844 6.95314 2.6687 6.79288L7.86155 1.60003C8.86958 0.592792 10.6253 0.592792 11.6333 1.60003C12.673 2.63972 12.673 4.33169 11.6333 5.37139L4.38217 12.7042C3.76196 13.3244 2.68139 13.3244 2.0612 12.7042C1.42136 12.0643 1.42136 11.0234 2.0612 10.3836L9.02227 3.34046C9.25463 3.10809 9.66009 3.10809 9.89248 3.34046C10.1325 3.58043 10.1325 3.97109 9.89248 4.21108L3.22189 10.9637C3.08353 11.1021 3.08353 11.4055 3.22189 11.5439C3.38215 11.7041 3.64178 11.7041 3.80204 11.5439L10.4726 4.79121C11.0327 4.23107 11.0327 3.32041 10.4726 2.7603C9.93013 2.21783 8.98377 2.21862 8.44211 2.7603L1.48105 9.8034C0.528777 10.7557 0.528777 12.332 1.48105 13.2843C1.94622 13.7495 2.56441 14 3.22186 14C3.87932 14 4.49756 13.7495 4.96232 13.2843L12.2134 5.95151C13.5733 4.59168 13.5733 2.37968 12.2135 1.01987Z" fill="rgb(222, 84, 84)"/>
</g>
<defs>
<clipPath id="clip0">
<rect width="14" height="14" fill="white"/>
</clipPath>
</defs>
</svg>
