<svg id="Capa_1" fill="white" enable-background="new 0 0 511.861 511.861" height="512" viewBox="0 0 511.861 511.861" width="512" xmlns="http://www.w3.org/2000/svg"><g><path d="m15.836 426.389 30.918 61.282c6.632 13.146 19.899 21.313 34.624 21.313h349.105c14.725 0 27.992-8.167 34.624-21.313l30.918-61.282c21.114-41.852 21.114-91.824 0-133.676l-34.832-69.041c11.242-3.751 19.368-14.375 19.368-26.861v-5.831c0-8.872-6.576-16.237-15.109-17.477-3.672-35.501-33.762-63.278-70.218-63.278-3.325 0-6.596.231-9.8.678 5.878-10.481 9.232-22.561 9.232-35.409 0-40.042-32.576-72.618-72.618-72.618-39.789 0-72.206 32.167-72.613 71.861-16.583-3.246-34.525-.525-49.954 8.764-3.548 2.136-4.693 6.745-2.557 10.294 2.136 3.547 6.744 4.693 10.294 2.557 8.614-5.186 18.514-7.927 28.629-7.927 30.655 0 55.594 24.939 55.594 55.594 0 10.464-2.871 20.517-8.336 29.299h-14.059c6.905-7.814 11.1-18.076 11.1-29.299 0-24.426-19.873-44.299-44.299-44.299s-44.299 19.873-44.299 44.299c0 11.223 4.196 21.484 11.1 29.299h-14.059c-5.465-8.782-8.336-18.835-8.336-29.299 0-8.318 1.788-16.573 5.644-24.438 1.823-3.719.286-8.212-3.433-10.036-3.72-1.823-8.213-.287-10.036 3.433-.95 1.937-1.805 3.903-2.568 5.896-10.33-5.684-21.876-8.65-33.906-8.65-36.392 0-66.441 27.681-70.198 63.094h-16.796c-9.738 0-17.66 7.922-17.66 17.661v5.831c0 12.487 8.126 23.11 19.368 26.861l-34.832 69.041c-21.115 41.853-21.115 91.825 0 133.677zm434.488-253.07h-11.427c-3.573-20.867-21.792-36.799-43.663-36.799-21.87 0-40.09 15.932-43.663 36.799h-11.427c3.673-27.12 26.978-48.094 55.09-48.094s51.416 20.974 55.09 48.094zm-26.764 0h-56.651c3.322-12.534 14.762-21.799 28.326-21.799 13.563 0 25.003 9.265 28.325 21.799zm-158.989-93.783c-2.31-33.386 24.187-61.659 57.478-61.659 31.771 0 57.618 25.847 57.618 57.618s-25.847 57.618-57.618 57.618c-5.778 0-11.441-.844-16.887-2.513-4.415-22.846-19.88-41.802-40.591-51.064zm41.829 66.887c8.756 1.925 17.898 2.204 26.734.845-4.286 7.901-7.108 16.707-8.099 26.051h-24.935c3.846-8.41 5.988-17.506 6.3-26.896zm-99.852-2.403c0-16.155 13.144-29.299 29.299-29.299 16.156 0 29.299 13.144 29.299 29.299s-13.144 29.299-29.299 29.299-29.299-13.143-29.299-29.299zm-70.594-18.795c10.777 0 21.059 3.021 29.997 8.775-.635 4.496-.839 9.105-.604 13.703-7.826-6.954-18.125-11.184-29.393-11.184-21.87 0-40.09 15.932-43.663 36.799h-11.427c3.674-27.119 26.979-48.093 55.09-48.093zm28.325 48.094h-56.651c3.322-12.534 14.762-21.799 28.326-21.799s25.004 9.265 28.325 21.799zm-97.54 51.799h25.034c.589 2.2 2.169 4.106 4.445 5.022 3.827 1.54 8.205-.297 9.759-4.155l.349-.867h250.97c4.142 0 7.5-3.358 7.5-7.5s-3.358-7.5-7.5-7.5c-70.326 0-227.151 0-297.688 0-7.338 0-13.308-5.97-13.308-13.308v-5.831c0-1.467 1.193-2.661 2.66-2.661h413.94c1.467 0 2.66 1.193 2.66 2.661v5.831c0 7.338-5.97 13.308-13.308 13.308-8.666-.006 22.995 0-59.958 0-4.142 0-7.5 3.358-7.5 7.5s3.358 7.5 7.5 7.5h13.24l.349.867c1.178 2.924 3.989 4.7 6.959 4.7 3.332 0 6.349-2.224 7.244-5.567h25.034l37.511 74.351c18.98 37.621 18.98 82.542 0 120.163l-30.917 61.282c-4.067 8.062-12.203 13.07-21.232 13.07-14.047 0-339.888 0-349.105 0-9.029 0-17.165-5.008-21.232-13.07l-30.917-61.282c-18.98-37.621-18.98-82.542 0-120.163z"/><path d="m430.223 286.435 4.71 11.7c1.537 3.816 5.89 5.712 9.759 4.156 3.842-1.547 5.703-5.916 4.156-9.759l-4.71-11.7c-1.548-3.842-5.917-5.701-9.759-4.156-3.842 1.547-5.703 5.916-4.156 9.759z"/><path d="m415.62 489.015c3.864 1.556 8.22-.335 9.758-4.156l4.711-11.7c1.547-3.842-.313-8.211-4.156-9.758-3.841-1.549-8.211.313-9.758 4.156l-4.711 11.7c-1.547 3.842.314 8.212 4.156 9.758z"/><path d="m442.504 322.047c.898 3.884 1.665 7.867 2.278 11.839.573 3.706 3.766 6.355 7.403 6.355 4.631 0 8.121-4.124 7.421-8.647-.67-4.335-1.507-8.684-2.488-12.926-.933-4.035-4.958-6.549-8.997-5.618-4.035.934-6.55 4.961-5.617 8.997z"/><path d="m451.727 390.178c-4.046-.905-8.051 1.644-8.953 5.687-.875 3.918-1.905 7.837-3.063 11.648-1.205 3.963 1.032 8.152 4.995 9.356 3.955 1.204 8.151-1.027 9.356-4.995 1.268-4.17 2.395-8.457 3.351-12.743.903-4.042-1.643-8.051-5.686-8.953z"/><path d="m454.248 351.412c-4.155 0-7.52 3.377-7.501 7.534.007 4.021-.102 7.861-.388 12.061-.293 4.319 3.127 8.009 7.49 8.009 3.91 0 7.207-3.033 7.476-6.992.314-4.626.428-8.777.422-13.146-.019-4.131-3.373-7.466-7.499-7.466z"/><path d="m440.458 427.326c-3.841-1.547-8.211.314-9.758 4.157l-4.71 11.7c-1.547 3.842.314 8.211 4.157 9.758 3.855 1.552 8.217-.329 9.758-4.157l4.71-11.7c1.546-3.842-.314-8.211-4.157-9.758z"/><path d="m420.409 262.06c1.539 3.823 5.898 5.71 9.758 4.156 3.842-1.547 5.703-5.916 4.156-9.758l-4.711-11.7c-1.547-3.842-5.916-5.703-9.758-4.156s-5.703 5.916-4.156 9.758z"/><path d="m58.52 340.16c4.085.632 7.924-2.165 8.558-6.266.613-3.97 1.38-7.953 2.278-11.84.932-4.036-1.583-8.063-5.619-8.996-4.036-.934-8.063 1.583-8.996 5.619-.98 4.245-1.817 8.593-2.487 12.925-.633 4.094 2.173 7.926 6.266 8.558z"/><path d="m67.166 302.297c3.864 1.556 8.22-.335 9.758-4.156l4.711-11.7c1.547-3.842-.313-8.211-4.156-9.758-3.842-1.549-8.211.313-9.758 4.156l-4.711 11.7c-1.547 3.842.313 8.211 4.156 9.758z"/><path d="m81.691 266.223c3.849 1.55 8.214-.321 9.758-4.157l4.71-11.7c1.547-3.842-.314-8.211-4.157-9.758-3.842-1.546-8.212.314-9.758 4.157l-4.71 11.7c-1.546 3.842.314 8.211 4.157 9.758z"/><path d="m72.152 407.518c-1.157-3.805-2.188-7.723-3.064-11.646-.903-4.042-4.909-6.587-8.954-5.686-4.043.903-6.588 4.912-5.686 8.954.958 4.291 2.086 8.577 3.352 12.742 1.204 3.961 5.389 6.198 9.358 4.994 3.963-1.205 6.199-5.395 4.994-9.358z"/><path d="m85.929 463.407c-3.842 1.547-5.703 5.916-4.156 9.758l4.711 11.7c1.539 3.823 5.898 5.71 9.758 4.156 3.842-1.547 5.703-5.916 4.156-9.758l-4.711-11.7c-1.546-3.842-5.914-5.704-9.758-4.156z"/><path d="m85.874 443.188-4.71-11.7c-1.547-3.842-5.917-5.703-9.759-4.156s-5.703 5.916-4.156 9.759l4.71 11.7c1.537 3.816 5.89 5.712 9.759 4.156 3.842-1.547 5.703-5.916 4.156-9.759z"/><path d="m58.012 379.024c4.365 0 7.784-3.691 7.49-8.01-.286-4.208-.395-8.047-.388-12.077.01-4.15-3.352-7.518-7.5-7.518-4.134 0-7.49 3.347-7.5 7.482-.007 4.371.111 8.547.422 13.13.27 3.961 3.565 6.993 7.476 6.993z"/><path d="m178.385 431.852h14.964c4.142 0 7.5-3.358 7.5-7.5s-3.358-7.5-7.5-7.5h-10.072v-54.724h145.306v54.724h-100.234c-4.142 0-7.5 3.358-7.5 7.5s3.358 7.5 7.5 7.5h105.126c5.573 0 10.107-4.534 10.107-10.107v-64.509c0-5.573-4.534-10.107-10.107-10.107h-155.09c-5.573 0-10.107 4.534-10.107 10.107v64.509c0 5.573 4.534 10.107 10.107 10.107z"/><path d="m314.548 111.243v3.379c0 4.142 3.358 7.5 7.5 7.5s7.5-3.358 7.5-7.5v-3.386c9.94-2.044 17.438-10.861 17.438-21.397 0-12.045-9.799-21.844-21.844-21.844h-6.188c-3.773 0-6.844-3.07-6.844-6.844s3.07-6.844 6.844-6.844h6.188c2.758 0 5.234 1.642 6.31 4.183 1.613 3.814 6.013 5.6 9.829 3.985 3.815-1.613 5.599-6.014 3.986-9.829-2.843-6.721-8.762-11.469-15.718-12.893v-3.385c0-4.142-3.358-7.5-7.5-7.5s-7.5 3.358-7.5 7.5v3.386c-9.94 2.044-17.438 10.861-17.438 21.397 0 12.045 9.799 21.844 21.844 21.844h6.188c3.773 0 6.844 3.07 6.844 6.844 0 3.773-3.07 6.844-6.844 6.844h-6.188c-2.844 0-5.349-1.711-6.381-4.359-1.505-3.858-5.852-5.768-9.712-4.262-3.859 1.505-5.767 5.854-4.262 9.712 2.747 7.048 8.763 12.015 15.948 13.469z"/></g></svg>