<svg width="126" height="126" viewBox="0 0 126 126" fill="none" xmlns="http://www.w3.org/2000/svg">
<path d="M125.191 62.5742C125.246 65.2695 123.191 67.3672 120.16 67.4219C115.492 67.5195 110.809 67.5078 106.125 67.4219C104.027 67.3945 102.359 66.4219 101.582 64.3516C100.887 62.5156 101.219 60.8359 102.539 59.3633C103.621 58.1523 105.066 57.8203 106.609 57.8086C108.82 57.7773 111.016 57.793 113.211 57.793C115.449 57.793 117.687 57.7773 119.922 57.8086C123.008 57.8477 125.137 59.793 125.191 62.5742Z" fill="#DF0060"/>
<path d="M117.395 33.1406C117.66 35.3516 116.645 36.9492 114.824 38.0195C110.793 40.3945 106.734 42.7305 102.664 45.0235C101.941 45.4258 101.078 45.5938 100.289 45.8555C98.3281 45.7461 96.4102 44.4805 95.7305 42.7149C95.0235 40.9102 95.5235 38.7422 96.9688 37.4766C97.3281 37.1563 97.7188 36.8242 98.1367 36.586C102.066 34.293 106 31.9883 109.977 29.75C113.27 27.9024 116.965 29.6133 117.395 33.1406Z" fill="#DF0060"/>
<path d="M114.992 87.3359C117.035 88.5586 117.895 90.8516 117.258 92.8945C116.645 94.8945 114.785 96.2852 112.617 96.4648C111.711 96.1328 110.738 95.9102 109.918 95.4531C105.945 93.2148 101.984 90.9492 98.0664 88.6289C94.8008 86.6836 94.4687 82.7227 97.3437 80.5C99.0508 79.1797 100.93 79.2344 102.734 80.2617C106.836 82.582 110.934 84.918 114.992 87.3359Z" fill="#DF0060"/>
<path d="M63.6015 28.9453C82.8359 29.6523 96.8554 45.4961 96.289 63.5859C95.6757 82.8906 79.6835 96.9101 61.5741 96.3008C42.328 95.6328 28.3632 79.6641 28.9609 61.6133C29.6015 42.3672 45.539 28.4453 63.6015 28.9453ZM86.6835 62.6289C86.6991 49.3164 75.8866 38.5312 62.5898 38.5625C49.3046 38.6016 38.6327 49.2461 38.5624 62.5586C38.4765 75.8281 49.2616 86.6562 62.5898 86.6953C75.8749 86.7383 86.6835 75.9414 86.6835 62.6289Z" fill="#DF0060"/>
<path d="M96.4804 112.613C96.3711 114.434 95.0625 116.395 93.3711 117.102C91.6601 117.809 89.3672 117.352 88.1718 116.043C88.0351 115.891 87.8789 115.738 87.7851 115.57C85.1289 111 82.3945 106.484 79.8906 101.828C78.7929 99.7852 79.875 97.3242 81.9453 96.0742C83.8359 94.9219 86.3398 95.3086 87.8125 97.0196C88.1992 97.4649 88.5625 97.9766 88.8672 98.4922C91.0234 102.191 93.1875 105.871 95.2734 109.598C95.8007 110.527 96.0898 111.598 96.4804 112.613Z" fill="#DF0060"/>
<path d="M95.3008 9.69922C96.6602 11.4492 96.5781 13.3516 95.5391 15.2031C93.2461 19.2734 90.8945 23.332 88.5039 27.3477C87.2813 29.418 85.1016 30.25 82.9766 29.6523C80.9297 29.0547 79.543 27.1641 79.3906 24.9297C79.707 24.0664 79.9023 23.1367 80.3477 22.3437C82.5859 18.3711 84.8516 14.4219 87.1719 10.5039C89.1016 7.23828 93.0781 6.85156 95.3008 9.69922Z" fill="#DF0060"/>
<path d="M67.4376 5.30859C67.4688 9.82422 67.4805 14.3398 67.4376 18.8711C67.4102 20.9531 66.6172 22.6914 64.5743 23.5664C62.6836 24.4023 60.9219 24.0938 59.379 22.7188C58.1954 21.6758 57.8086 20.2734 57.8086 18.7734C57.7813 14.2852 57.793 9.80859 57.793 5.33594C57.7813 2.60937 59.2383 0.972656 61.6446 0C62.2969 0 62.9493 0 63.6016 0C64.129 0.277344 64.6876 0.499999 65.1876 0.820312C66.7969 1.875 67.4258 3.45703 67.4376 5.30859Z" fill="#DF0060"/>
<path d="M67.4532 119.922C67.4688 122.645 66.0079 124.285 63.6016 125.258C62.9493 125.258 62.2969 125.258 61.6446 125.258C61.1134 124.98 60.5587 124.758 60.0587 124.437C58.4454 123.383 57.8087 121.785 57.8087 119.949C57.7813 115.434 57.7657 110.902 57.8087 106.387C57.8204 104.305 58.629 102.566 60.6719 101.691C62.5587 100.855 64.3126 101.164 65.8673 102.539C67.0509 103.582 67.4259 104.984 67.4376 106.484C67.4688 110.961 67.4532 115.449 67.4532 119.922Z" fill="#DF0060"/>
<path d="M44.9414 22.4258C46.207 24.6523 45.871 26.9844 44.1914 28.5703C42.5937 30.082 40.1328 30.293 38.2304 28.9453C37.5625 28.4727 36.9804 27.7617 36.5468 27.0547C34.2539 23.1641 32.0195 19.2461 29.7656 15.3281C28.8085 13.6602 28.6132 11.9375 29.5859 10.2266C30.5039 8.61328 31.9609 7.83594 33.8125 7.82422C35.7695 7.83594 37.1171 8.87891 38.0625 10.4766C40.3828 14.4375 42.6757 18.4258 44.9414 22.4258Z" fill="#DF0060"/>
<path d="M45.8867 100.246C45.5508 101.137 45.3437 102.109 44.8711 102.926C42.6484 106.902 40.3554 110.848 38.0625 114.781C36.9375 116.711 35.2422 117.715 32.9609 117.367C31.0156 117.074 29.7812 115.879 29.1523 114.016C28.6797 112.598 29.0273 111.25 29.7226 110.027C32.0039 106 34.3242 101.969 36.6875 97.9805C37.9492 95.8555 40.1601 94.9805 42.3008 95.6055C44.289 96.2031 45.6914 98.0781 45.8867 100.246Z" fill="#DF0060"/>
<path d="M27.2812 36.6992C29.4062 37.9648 30.2812 40.1875 29.6406 42.3125C29.0429 44.3008 27.1679 45.6875 25 45.8984C24.0703 45.5508 23.0703 45.3008 22.207 44.8125C18.3007 42.6172 14.4414 40.3672 10.5625 38.1289C8.5898 36.9765 7.54683 35.2812 7.89448 32.9609C8.17183 31 9.39448 29.7773 11.2421 29.1523C12.6601 28.6797 14.0078 29.0273 15.2304 29.7226C19.2617 32.0156 23.2929 34.3359 27.2812 36.6992Z" fill="#DF0060"/>
<path d="M29.5 82.5C30.2226 84.2656 29.7382 86.4883 28.3047 87.75C27.9179 88.0977 27.5 88.4453 27.0547 88.7109C23.1523 90.9766 19.2461 93.2539 15.3125 95.4609C11.9922 97.3242 8.32418 95.6836 7.86324 92.1562C7.5859 89.9609 8.55856 88.332 10.3789 87.25C14.4101 84.875 18.4687 82.5391 22.539 80.2461C23.289 79.8281 24.207 79.6797 25.039 79.3867C26.9179 79.5273 28.8086 80.7891 29.5 82.5Z" fill="#DF0060"/>
<path d="M23.5664 60.668C24.3867 62.5586 24.0977 64.3242 22.7188 65.8789C21.6641 67.0625 20.2617 67.4336 18.7617 67.4492C14.2852 67.4766 9.79688 67.4492 5.32031 67.4648C2.61328 67.4648 0.957031 66.0039 0 63.6016C0 62.9492 0 62.2969 0 61.6562C0.265625 61.1133 0.500001 60.5586 0.820312 60.0703C1.86328 58.4453 3.46094 57.8203 5.29297 57.8086C9.82422 57.7773 14.3398 57.7656 18.8555 57.8086C20.957 57.8359 22.6797 58.6406 23.5664 60.668Z" fill="#DF0060"/>
</svg>
