<svg width="88" height="112" viewBox="0 0 88 112" fill="none" xmlns="http://www.w3.org/2000/svg">
<path d="M84.9727 72.9766H74.5156V71.125H84.9727V72.9766Z" fill="#FFB919"/>
<path d="M84.9727 68.8359H74.5156V66.9805H84.9727V68.8359Z" fill="#FFB919"/>
<path d="M84.9727 64.6914H74.5156V62.8359H84.9727V64.6914Z" fill="#FFB919"/>
<path d="M84.9727 60.5469H74.5156V58.6914H84.9727V60.5469Z" fill="#FFB919"/>
<path d="M87.7422 56.4023H74.5156V54.5469H87.7422V56.4023Z" fill="#FFB919"/>
<path d="M84.9727 52.2578H74.5156V50.4062H84.9727V52.2578Z" fill="#FFB919"/>
<path d="M84.9727 48.1133H74.5156V46.2617H84.9727V48.1133Z" fill="#FFB919"/>
<path d="M84.9727 43.9688H74.5156V42.1172H84.9727V43.9688Z" fill="#FFB919"/>
<path d="M84.9727 39.8281H74.5156V37.9727H84.9727V39.8281Z" fill="#FFB919"/>
<path d="M87.7422 35.6836H74.5156V33.832H87.7422V35.6836Z" fill="#FFB919"/>
<path d="M84.9727 31.5391H74.5156V29.6875H84.9727V31.5391Z" fill="#FFB919"/>
<path d="M84.9727 27.3984H74.5156V25.543H84.9727V27.3984Z" fill="#FFB919"/>
<path d="M84.9727 23.2539H74.5156V21.3984H84.9727V23.2539Z" fill="#FFB919"/>
<path d="M84.9727 19.1094H74.5156V17.2539H84.9727V19.1094Z" fill="#FFB919"/>
<path d="M87.7422 14.9688H74.5156V13.1133H87.7422V14.9688Z" fill="#FFB919"/>
<path d="M59.7617 104.668C52.8945 104.668 47.3086 99.0977 47.3086 92.2539C47.3086 88.0352 49.4375 84.1367 53.0117 81.832L56.1523 79.8008V25.5664H63.3828V79.8008L66.5234 81.832C70.0898 84.1367 72.2227 88.0352 72.2227 92.2539C72.2227 99.0977 66.6328 104.668 59.7617 104.668ZM53.8555 10.4648C53.8555 7.21875 56.5078 4.57812 59.7617 4.57812C63.0234 4.57812 65.6797 7.21875 65.6797 10.4648V23.2773H53.8555V10.4648ZM70.2695 76.0703V10.4648C70.2695 4.6875 65.5703 0 59.7617 0C53.9648 0 49.2617 4.6875 49.2617 10.4648V76.0703C43.9414 79.5078 40.418 85.4688 40.418 92.2539C40.418 102.902 49.082 111.531 59.7617 111.531C70.4453 111.531 79.1094 102.902 79.1094 92.2539C79.1094 85.4688 75.5898 79.5078 70.2695 76.0703Z" fill="#FFB919"/>
<path d="M49.6289 57.3047C46.9336 58.8438 43.7695 59.625 40.4414 59.3281C31.8008 58.5547 25.418 50.9375 26.1914 42.3203C26.9688 33.6992 34.6094 27.3399 43.25 28.1133C45.582 28.3203 47.7266 29.0547 49.6289 30.1406V25.582C47.7617 24.7813 45.7539 24.2344 43.6172 24.043C32.7149 23.0664 23.0859 31.086 22.1055 41.9531C21.1289 52.8203 29.1758 62.4219 40.0742 63.3945C43.4649 63.6992 46.707 63.0938 49.6289 61.8477V57.3047Z" fill="#FFB919"/>
<path d="M45.6055 2.01562L40.1484 21.0898L47.5703 21.7539L45.6055 2.01562Z" fill="#FFB919"/>
<path d="M38.0938 85.4258L43.5547 66.3477L36.1328 65.6836L38.0938 85.4258Z" fill="#FFB919"/>
<path d="M19.8086 38.0195L0 39.9766L19.1445 45.418L19.8086 38.0195Z" fill="#FFB919"/>
<path d="M25.4141 28.0117L7.17188 20.0703L21.207 34.1406L25.4141 28.0117Z" fill="#FFB919"/>
<path d="M26.0898 60.0977L18.1172 78.2773L32.2383 64.293L26.0898 60.0977Z" fill="#FFB919"/>
<path d="M35.2539 22L23.2617 6.16797L28.5742 25.2852L35.2539 22Z" fill="#FFB919"/>
<path d="M4.16016 62.2422L23.3516 56.957L20.0586 50.293L4.16016 62.2422Z" fill="#FFB919"/>
</svg>
