<svg id="Capa_1" enable-background="new 0 0 512 512" height="512" viewBox="0 0 512 512" width="512" xmlns="http://www.w3.org/2000/svg"><g><path d="m448.48 6.691c-4.614-6.899-13.887-8.774-20.801-4.16l-171.679 115.437-171.68-115.437c-6.929-4.614-16.23-2.739-20.801 4.16-4.6 6.899-2.739 16.201 4.16 20.801l180 120.989c2.52 1.685 5.42 2.52 8.32 2.52s5.801-.835 8.32-2.52l180-120.989c6.901-4.6 8.761-13.902 4.161-20.801z" fill="#4d5e80"/><path d="m444.32 27.492c6.899-4.6 8.76-13.901 4.16-20.801-4.614-6.899-13.887-8.774-20.801-4.16l-171.679 115.437v33.032c2.9 0 5.801-.835 8.32-2.52z" fill="#3d4566"/><path d="m376 121h-120-120c-8.291 0-15 6.709-15 15v361c0 8.291 6.709 15 15 15h120 120c8.291 0 15-6.709 15-15v-361c0-8.291-6.709-15-15-15z" fill="#ff6a4d"/><path d="m391 497v-361c0-8.291-6.709-15-15-15h-120v391h120c8.291 0 15-6.709 15-15z" fill="#e64545"/><path d="m337.636 240.297c-1.772-5.42-6.46-9.375-12.114-10.195l-38.745-5.625-17.329-35.112c-2.52-5.127-7.983-7.69-13.447-7.69s-10.928 2.563-13.447 7.69l-17.329 35.112-38.745 5.625c-5.654.82-10.342 4.775-12.114 10.195-1.758 5.435-.293 11.396 3.794 15.381l28.052 27.334-6.621 38.599c-.967 5.625 1.348 11.309 5.962 14.663 4.629 3.369 10.767 3.823 15.806 1.143l34.641-18.224 34.644 18.223c5.043 2.655 11.158 2.234 15.806-1.143 4.614-3.354 6.929-9.038 5.962-14.663l-6.621-38.599 28.052-27.334c4.086-3.984 5.551-9.946 3.793-15.38z" fill="#ffdf80"/><path d="m306.449 336.273c4.614-3.354 6.929-9.038 5.962-14.663l-6.621-38.599 28.052-27.334c4.087-3.984 5.552-9.946 3.794-15.381-1.772-5.42-6.46-9.375-12.114-10.195l-38.745-5.625-17.329-35.112c-2.52-5.127-7.983-7.69-13.447-7.69v137.52l34.644 18.223c5.041 2.654 11.157 2.233 15.804-1.144z" fill="#ffc44d"/><g fill="#ffc44d"><path d="m196 391h60 60c8.291 0 15-6.709 15-15s-6.709-15-15-15h-60-60c-8.291 0-15 6.709-15 15s6.709 15 15 15z"/><path d="m316 421h-60-60c-8.291 0-15 6.709-15 15s6.709 15 15 15h60 60c8.291 0 15-6.709 15-15s-6.709-15-15-15z"/></g><g fill="#f93"><path d="m331 376c0-8.291-6.709-15-15-15h-60v30h60c8.291 0 15-6.709 15-15z"/><path d="m331 436c0-8.291-6.709-15-15-15h-60v30h60c8.291 0 15-6.709 15-15z"/></g></g></svg>