<svg width="116" height="116" viewBox="0 0 116 116" fill="none" xmlns="http://www.w3.org/2000/svg">
<path d="M58.6094 37.6484V77.832C58.6094 78.8008 57.1602 78.6094 55.543 77.5195L35.5508 64.0547H24.7852V51.4219H35.5508L55.543 37.957C57.1602 36.8672 58.6094 36.6797 58.6094 37.6484Z" fill="#EE2722"/>
<path d="M79.8906 78.2422C85.6601 73.082 89.0742 65.9883 89.5039 58.2696C89.9297 50.5508 87.3281 43.1211 82.1719 37.3477C81.6289 36.7539 80.7148 36.7071 80.125 37.2383C79.5351 37.7696 79.4844 38.6797 80.0156 39.2774C84.6601 44.4727 87.0039 51.1602 86.6211 58.1055C86.2344 65.0586 83.1601 71.4414 77.9609 76.086C77.3711 76.6172 77.3164 77.5313 77.8476 78.1289C78.1367 78.4453 78.5312 78.6094 78.9258 78.6094C79.2695 78.6094 79.6133 78.4922 79.8906 78.2422ZM72.0195 74.8321C81.9336 65.961 82.7851 50.6719 73.914 40.75C73.414 40.1992 72.5742 40.1524 72.0351 40.6485C71.4883 41.1367 71.4414 41.9805 71.9297 42.5274C75.7578 46.8047 77.6953 52.3125 77.3711 58.0352C77.0547 63.7617 74.5234 69.0235 70.2383 72.8477C69.6953 73.336 69.6484 74.1797 70.1367 74.7266C70.3984 75.0195 70.7656 75.168 71.1289 75.168C71.4453 75.168 71.7656 75.0625 72.0195 74.8321ZM63.4101 71.211C63.0937 71.211 62.7773 71.0781 62.543 70.8242C62.1172 70.3438 62.1601 69.6094 62.6367 69.1875C69.3242 63.2031 69.8984 52.8945 63.918 46.2031C63.4922 45.7227 63.5312 44.9883 64.0078 44.5664C64.4805 44.1289 65.2109 44.1758 65.6484 44.6524C72.4805 52.3008 71.8242 64.082 64.1836 70.9141C63.9648 71.1094 63.6836 71.211 63.4101 71.211Z" fill="#EE2722"/>
<path d="M8.30859 57.7383C8.30859 45.4688 12.7891 34.2539 20.1875 25.6133L92.4258 92.9492C83.5 101.742 71.2578 107.172 57.7422 107.172C30.4375 107.172 8.30859 85.0391 8.30859 57.7383ZM107.176 57.7383C107.176 68.7969 103.543 79.0078 97.4062 87.2422L25.543 20.25C34.1914 12.8125 45.4336 8.30859 57.7422 8.30859C85.043 8.30859 107.176 30.4375 107.176 57.7383ZM57.7422 0C25.8516 0 0 25.8516 0 57.7383C0 89.6289 25.8516 115.48 57.7422 115.48C89.6289 115.48 115.48 89.6289 115.48 57.7383C115.48 25.8516 89.6289 0 57.7422 0Z" fill="#EE2722"/>
</svg>
