<svg width="95" height="117" viewBox="0 0 95 117" fill="none" xmlns="http://www.w3.org/2000/svg">
<path d="M78.6406 24.6211L78.3867 24.5117C67.7031 19.8398 57.1914 17.4727 47.1484 17.4727C32.2578 17.4727 19.625 22.7266 16.1094 24.3359C14.7188 24.9727 13.8203 26.3711 13.8203 27.9023V109.68C13.8203 110.754 14.6914 111.629 15.7656 111.629H78.5312C79.6055 111.629 80.4766 110.754 80.4766 109.68V27.4336C80.4766 26.2109 79.7539 25.1055 78.6406 24.6211ZM33.3555 71.8906V51.6758H60.1484V71.8906H33.3555ZM60.1484 73.1914V107.727H33.3555V73.1914H60.1484ZM30.7617 27.5H18.5898C20.8711 26.5078 25.1992 24.8047 30.7617 23.4453V27.5ZM30.7617 30.0977V49.0781H17.7188L17.7227 30.0977H30.7617ZM17.7188 51.6758H30.7617V71.8906H17.7148L17.7188 51.6758ZM62.7422 51.6758H76.5859V71.8906H62.7422V51.6758ZM62.7422 23.3164C66.9141 24.3203 71.1445 25.7148 75.4141 27.5H62.7422V23.3164ZM62.7422 30.0977H76.5859V49.0781H62.7422V30.0977ZM60.1484 22.7422V28.7891C60.1484 28.793 60.1445 28.7969 60.1445 28.8008C60.1445 28.8047 60.1484 28.8086 60.1484 28.8125V49.0781H33.3555V22.8594C37.5078 21.9961 42.1914 21.375 47.1484 21.375C51.3906 21.375 55.7344 21.8477 60.1484 22.7422ZM17.7148 73.1914H30.7617V107.727H17.707L17.7148 73.1914ZM62.7422 107.727V73.1914H76.5859V107.727H62.7422Z" fill="#FFB919"/>
<path d="M0.0390625 115.148C0.0898435 116.18 0.933594 117 1.97266 117H92.3828C92.418 117 92.4531 116.992 92.4883 116.992C92.8516 116.973 93.1875 116.859 93.4688 116.668C93.5039 116.645 93.5313 116.613 93.5664 116.59C93.6328 116.539 93.6992 116.488 93.7578 116.43C93.8164 116.371 93.8672 116.305 93.918 116.238C93.9414 116.203 93.9727 116.176 93.9961 116.141C94.125 115.949 94.2148 115.734 94.2695 115.504C94.2734 115.484 94.2852 115.465 94.2891 115.445C94.3047 115.367 94.3047 115.289 94.3125 115.211C94.3164 115.156 94.3281 115.105 94.3281 115.051L94.2969 18.5703C94.2969 16.5039 93.5039 14.5508 92.0625 13.0664C90.207 11.1641 88.0273 9.65625 85.6211 8.60938L85.3516 8.48828C72.4687 2.85547 59.6172 0 47.1484 0C29.2539 0 14.418 5.89844 8.87109 8.4375C6.20703 9.65625 3.85937 11.3867 1.89453 13.5781C0.671874 14.9414 0 16.7578 0 18.6953L0.03125 115.051C0.03125 115.086 0.0390625 115.117 0.0390625 115.148ZM10.5234 27.9023C10.5234 25.082 12.1797 22.5039 14.7422 21.332C19.4453 19.1797 32.0156 14.1719 47.1484 14.1719C57.6484 14.1719 68.6016 16.6289 79.7031 21.4844L79.9531 21.5938C82.2734 22.6016 83.7695 24.8945 83.7695 27.4336L83.8008 113.102H10.5547L10.5234 27.9023ZM4.78516 16.1836C6.39063 14.3945 8.30859 12.9805 10.4844 11.9844C15.8008 9.55469 30.0195 3.90234 47.1484 3.90234C59.0781 3.90234 71.4102 6.64844 83.7695 12.0508L84.0391 12.1719C86.0156 13.0312 87.7773 14.25 89.2773 15.793C90.0078 16.5391 90.4102 17.5273 90.4102 18.5703L90.4375 113.102H86.3945L86.3633 27.4336C86.3633 23.8594 84.2539 20.6328 80.9883 19.207L80.7383 19.0977C69.3086 14.1055 58.0078 11.5703 47.1484 11.5703C31.5078 11.5703 18.5195 16.7422 13.6641 18.9648C10.1836 20.5586 7.93359 24.0664 7.93359 27.9023L7.96094 113.102H3.91797L3.89062 18.6953C3.89062 17.7227 4.20703 16.832 4.78516 16.1836Z" fill="#FFB919"/>
</svg>
