<svg width="470" height="470" viewBox="0 0 470 470" fill="none" xmlns="http://www.w3.org/2000/svg">
<g clip-path="url(#clip0)">
<path d="M4.271 233.198C6.188 234.636 8.438 235.333 10.667 235.333C13.896 235.333 17.105 233.864 19.209 231.062C19.813 230.26 81.646 149.999 224.001 149.999C229.897 149.999 234.668 145.228 234.668 139.332C234.668 133.436 229.897 128.665 224.001 128.665C71.084 128.665 4.876 214.603 2.126 218.269C-1.395 222.979 -0.437001 229.667 4.271 233.198Z" fill="#E8B739"/>
<path d="M405.334 86C357.459 86 343.855 110.438 342.459 113.229C339.876 118.396 341.959 124.542 347.042 127.271C352.167 130.021 358.542 128.031 361.417 123.021C361.771 122.375 370.771 107.333 405.334 107.333C443.834 107.333 448.001 137.166 448.001 150C448.001 166.604 430.355 214 352.001 214C305.605 214 278.563 207.5 254.688 201.76C235.209 197.083 216.813 192.666 192 192.666C137.125 192.666 35.479 236.52 1.125 305.229C-1.5 310.5 0.624999 316.906 5.896 319.542C7.438 320.302 9.063 320.667 10.667 320.667C14.563 320.667 18.334 318.511 20.209 314.771C50.5 254.187 143.667 214 192 214C214.292 214 230.688 217.948 249.708 222.51C274.729 228.52 303.083 235.333 352 235.333C447.771 235.333 469.333 172.135 469.333 150C469.334 120.479 452.563 86 405.334 86Z" fill="#E8B739"/>
<path d="M224 256.667C110.937 256.667 86.854 325.052 85.875 327.959C84.021 333.553 87.042 339.594 92.625 341.449C98.25 343.345 104.25 340.314 106.125 334.709C106.313 334.136 126.146 278.001 224 278.001C319.792 278.001 362.667 304.793 362.667 331.334C362.667 357.782 345.271 363.334 330.667 363.334C316.896 363.334 300.646 350.178 295.521 345.115C291.354 340.969 284.625 340.959 280.458 345.146C276.291 349.313 276.291 356.052 280.458 360.209C282.958 362.709 305.646 384.667 330.666 384.667C356.458 384.667 383.999 370.657 383.999 331.334C384 295.24 341.959 256.667 224 256.667Z" fill="#E8B739"/>
</g>
<defs>
<clipPath id="clip0">
<rect width="469.335" height="469.335" fill="white"/>
</clipPath>
</defs>
</svg>
